<?xml version="1.0" encoding="utf-8"?>
<!-- Generator: Adobe Illustrator 25.2.1, SVG Export Plug-In . SVG Version: 6.00 Build 0)  -->
<svg version="1.1" id="Layer_1" xmlns="http://www.w3.org/2000/svg" xmlns:xlink="http://www.w3.org/1999/xlink" x="0px" y="0px"
	 viewBox="0 0 681 385" style="enable-background:new 0 0 681 385;" xml:space="preserve">
<style type="text/css">
	.st0{fill:none;}
	.st1{fill:#010102;}
	.st2{fill:#83868C;}
	.st3{font-family:'Audiowide-Regular';}
	.st4{font-size:33.504px;}
	.st5{font-size:20.031px;}
</style>
<g>
	<rect class="st0" width="680.8" height="384.3"/>
	<path class="st1" d="M588.8,198.9c-2.3-44.4-6.4-88.8-10.3-133C575.1,30,546.4,3.2,511.6,2.3c-15.9-0.4-31.7-0.8-47.6-1.1H218
		c-16,0.3-32.1,0.6-48.1,1c-3.5,0.1-7,0.2-10.5,0.9c-33.2,6.5-55.6,33.1-58.1,67.9c-2.6,35.4-5.8,70.7-8.3,106.1
		c-3.1,43.5-4.3,87-0.3,130.5c0.8,9,1.9,18,3.4,26.8c3.2,20,16.6,32.3,32.7,42.1c1.4,0.8,2.8,1.7,4.2,2.4h415.5
		c5.7-3.7,11.2-7.8,16.5-12.2c10.7-9.1,18-20.3,19.8-34.6c2-15.5,4-31,4.7-46.6C590.7,256.6,590.3,227.8,588.8,198.9z M534.4,293.2
		c0,7.6,0,7.6-7.6,7.6H149.5c-8.1,0-8.1,0-8.1-8.3v-242c0-12,0-12,12.2-12h184.3c63.1,0,126.2,0,189.3-0.1c7.3,0,7.3,0,7.3,7.3
		L534.4,293.2L534.4,293.2z"/>
	<path class="st2" d="M42.2,100c3.9-0.2,7.4,0.4,11,1.1c2,0.3,2.8,1.3,2.9,3.4c0.2,7.2,0.7,14.5,0.4,21.7c-0.1,2.4,0.8,3,3.1,3
		c7.2-0.1,14.5-0.1,21.7,0.4c1.6,0.1,2.6,0.5,3,2.2c1.9,7.4,1.4,14.7-0.3,22c-0.3,1.5-1.5,1.8-2.8,1.8c-7.2-0.3-14.5,0.5-21.7,0.5
		c-2.3,0-2.9,0.8-3.1,3.1c-0.6,7.1,0,14.3-0.9,21.4c-0.1,1.2-0.3,2.2-1.6,2.7c-7,3-14,3.5-21.1,0.5c-1.9-0.8-2.7-2-2.7-4
		c-0.1-6.9-0.4-13.8-0.5-20.6c0-2.4-0.7-3.5-3.3-3.5c-6.8,0.2-13.6-0.1-20.4-0.5c-1.9-0.1-3.1-0.7-3.8-2.5c-2.3-6.4-3-12.8-0.4-19.3
		c0.7-1.9,1.7-3.1,4-3.2c6.9-0.2,13.7-0.7,20.6-0.8c2.4-0.1,3.3-0.8,3.2-3.3c-0.1-6.8,0-13.6,0.1-20.4c0-3.7,0.4-4.2,4.1-4.9
		C36.6,100.1,39.5,99.7,42.2,100z"/>
	<path class="st2" d="M616.7,152.2c9.4,0,17,7.4,17.1,16.8c0.1,9.3-7.6,16.9-16.8,16.9c-9.6,0-17.2-7.5-17.2-17.1
		C599.7,159.6,607.2,152.2,616.7,152.2z"/>
	<path class="st2" d="M659.8,165.6c-9.4,0-17-7.5-17-16.8c0-9.4,7.5-16.9,16.9-16.9c9.5,0,17.1,7.6,17.1,16.9
		C676.6,158,668.9,165.6,659.8,165.6z"/>
	<path class="st2" d="M70.1,255.9c4.4-0.1,7.6,3,7.7,7.3c0,4.2-3.1,7.5-7.2,7.5c-4.4,0-7.7-3-7.7-7.2
		C62.7,259.1,65.7,255.9,70.1,255.9z"/>
	<path class="st2" d="M69.5,278c4.7,0.2,7.7,3.2,7.6,7.5c-0.1,4-3.7,7.5-7.6,7.3c-4.1-0.1-7.5-3.8-7.3-8.1
		C62.3,280.7,65.3,277.9,69.5,278z"/>
	<path class="st1" d="M340.2,373.3c-113.4,0-205.5,2.4-207.4,5.4h0.1c0.1,0.1,0.3,0.1,0.4,0.2c0.6,0.2,1.2,0.4,1.8,0.6
		c15.3,2.6,101.3,4.7,205,4.7c114.6,0,207.4-2.5,207.4-5.5S454.8,373.3,340.2,373.3z"/>
	<g>
		<text transform="matrix(1 0 0 1 228.7644 357.5449)" class="st2 st3 st4">COLE</text>
		<text transform="matrix(1 0 0 1 336.5196 351.7292)" class="st2 st3 st5">JOHNSON</text>
	</g>
</g>
</svg>
