<?xml version="1.0" encoding="utf-8"?>
<!-- Generator: Adobe Illustrator 25.2.1, SVG Export Plug-In . SVG Version: 6.00 Build 0)  -->
<svg version="1.1" id="Layer_1" xmlns="http://www.w3.org/2000/svg" xmlns:xlink="http://www.w3.org/1999/xlink" x="0px" y="0px"
	 viewBox="0 0 623 404" style="enable-background:new 0 0 623 404.3;" xml:space="preserve">
<style type="text/css">
	.st0{fill:#010102;}
	.st1{fill:#83868C;}
</style>
<path class="st0" d="M309.2,0.1c58.8-0.5,116,0.7,173.1,2.2c34.8,0.9,63.5,27.7,66.8,63.7c4,44.2,8.1,88.6,10.3,133
	c1.5,28.9,1.9,57.6,0.7,86.5c-0.7,15.6-2.6,31.1-4.7,46.6c-1.8,14.2-9.1,25.5-19.8,34.6c-16.8,14.2-35.6,24.7-57.3,29.4
	c-10.8,2.4-21.8,2.8-32.9,3.6c-43.3,3.5-86.6,5.2-130,4.4c-48.5-0.8-97-4.2-145.4-6.8c-25.3-1.4-49-7.7-70.6-20.9
	c-16.1-9.8-29.6-22.1-32.7-42.1c-1.5-8.9-2.6-17.8-3.4-26.8c-4-43.5-2.7-87,0.3-130.5c2.5-35.4,5.7-70.7,8.3-106.1
	C74.6,36.1,97,9.5,130.2,3.1c3.4-0.7,6.9-0.8,10.5-0.9C197.1,0.9,253.9-0.4,309.2,0.1z M308.6,38.4c-61.4,0-122.9,0-184.3,0
	c-12.2,0-12.2,0-12.2,12c0,80.7,0,161.3,0,242c0,8.3,0,8.3,8.1,8.3c125.7,0,251.6,0,377.3,0c7.6,0,7.6,0,7.6-7.6
	c0-82.5,0-165.1,0-247.6c0-7.3,0-7.3-7.3-7.3C434.8,38.4,371.7,38.4,308.6,38.4z"/>
<path class="st1" d="M-0.1,100c3.9-0.2,7.4,0.4,11,1.1c2,0.3,2.8,1.3,2.9,3.4c0.2,7.2,0.7,14.5,0.4,21.7c-0.1,2.4,0.8,3,3.1,3
	c7.2-0.1,14.5-0.1,21.7,0.4c1.6,0.1,2.6,0.5,3,2.2c1.9,7.4,1.4,14.7-0.3,22c-0.3,1.5-1.5,1.8-2.8,1.8c-7.2-0.3-14.5,0.5-21.7,0.5
	c-2.3,0-2.9,0.8-3.1,3.1c-0.6,7.1,0,14.3-0.9,21.4c-0.1,1.2-0.3,2.2-1.6,2.7c-7,3-14,3.5-21.1,0.5c-1.9-0.8-2.7-2-2.7-4
	c-0.1-6.9-0.4-13.8-0.5-20.6c0-2.4-0.7-3.5-3.3-3.5c-6.8,0.2-13.6-0.1-20.4-0.5c-1.9-0.1-3.1-0.7-3.8-2.5c-2.3-6.4-3-12.8-0.4-19.3
	c0.7-1.9,1.7-3.1,4-3.2c6.9-0.2,13.7-0.7,20.6-0.8c2.4-0.1,3.3-0.8,3.2-3.3c-0.1-6.8,0-13.6,0.1-20.4c0-3.7,0.4-4.2,4.1-4.9
	C-5.7,100.1-2.8,99.7-0.1,100z"/>
<path class="st1" d="M593.6,156c8.3,0,15,6.5,15.1,14.8c0.1,8.2-6.7,14.9-14.8,14.9c-8.5,0-15.2-6.6-15.2-15.1
	C578.6,162.6,585.3,156,593.6,156z"/>
<path class="st1" d="M623.5,157.8c-8.3,0-15-6.6-15-14.8c0-8.3,6.6-14.9,14.9-14.9c8.4,0,15.1,6.7,15.1,14.9
	C638.4,151.1,631.6,157.8,623.5,157.8z"/>
<path class="st1" d="M35.6,257.3c4.4-0.1,7.6,3,7.7,7.3c0,4.2-3.1,7.5-7.2,7.5c-4.4,0-7.7-3-7.7-7.2
	C28.1,260.5,31.1,257.3,35.6,257.3z"/>
<path class="st1" d="M35.6,276.8c4.7,0.2,7.7,3.2,7.6,7.5c-0.1,4-3.7,7.5-7.6,7.3c-4.1-0.1-7.5-3.8-7.3-8.1
	C28.4,279.5,31.4,276.7,35.6,276.8z"/>
</svg>
